<svg xmlns="http://www.w3.org/2000/svg" xml:space="preserve" id="svg74" x="0" y="0" version="1.1" viewBox="0 0 1006.8 886.1">
	<style>
		.st0{fill:none}.st1{fill:#00bcd4}
	</style>
	<path d="M502.9 224.8h-44.6l-6.4 93.5h51zM499.4 709.6c4.5-70.3 17.3-94 17.3-136.7s-20.3-62.8-20.3-96.8c0-25 9-39.8 11.8-71.4.8-8.7-1-23.3-5.3-44h-64.8l-31.3 442.5c22.7-8.8 52.8-17.5 90.5-22.5-.4-20 .4-43.7 2.1-71.1" class="st0" />
	<path d="m414.4 696.4.1-1.3z" class="st1" />
	<path d="M422.7 188h21.9c54.2-87.7 101.9 0 101.9 0h19.4v34.1l212.5-54.4C718.3 67.2 608.5 0 483.1 0 368.4 0 266.8 56.2 204.2 142.7L7.3 108 0 149.4l422.7 74.4z" style="fill:#ff5722" />
	<path d="M584.1 317.5V360h-11.5l23.3 327.1c124.4-40.8 217.7-150.3 235.2-283.6l168.4 29.7 7.3-41.4zM394.7 691.4l25.1-333.1h-11.7v-39.5L142 357.7c0 158.9 106.8 292.8 252.5 333.7z" class="st1" />
	<path d="M708.7 833.6c-.5-2.7-10.8-6-16.4-5.9-25.4.6-45.4-6.2-60.8-22.8-7.1-7.6-15-15-28.1-13.2L572.6 360h11.5v-42.5h-25.3l-5.9-95.4h13V188h-19.4s-47.7-87.7-101.9 0h-21.9v35.8H438l-8 95h-21.9v39.5h11.7l-34.3 454.3c-3.5 1.7-6.7 3.3-9.6 4.9h-.1c-7.6 3.6-23.2 12.9-40.1 23.2-13.4 7.6-26.3 16-39.7 24.7-7.7 4.9-14.1 8.9-18.1 11.5l1 2.9c77.5-1.1 140.9-30.6 209.6-46.2-24.7 13.7-49.3 27.3-77.9 43.2 7.3-.8 9.4-.7 11.3-1.2 50.7-12.6 102.8-21.2 155.4-19.3 31.9 1.1 63 8.7 94 15.5 31.3 6.9 62.6 10.6 94.5 14.2.9-1.8 1.7-3.7 2.6-5.5-33.9-5.2-54.3-20-59.7-46.9M458.3 224.8h44.6v93.5h-51zm41.1 484.8c-1.8 27.4-2.5 51.1-2.2 71.2-37.7 5-67.8 13.7-90.5 22.5L438 360.8h64.8c4.3 20.7 6.1 35.3 5.3 44-2.8 31.6-11.8 46.4-11.8 71.4 0 34.1 20.3 54.1 20.3 96.8s-12.6 66.3-17.2 136.6" style="fill:#1a2846" />
</svg>
